# xmcd
#
# Track frame offsets:
#	150
#	14387
#	25926
#	36939
#	50550
#	66196
#	79647
#	96451
#	109296
#	123369
#	138913
#	151519
#
# Disc length: 2196 seconds
#
# Revision: 0
# Processed by: cddbd v1.5.2PL0 Copyright (c) Steve Scherf et al.
# Submitted via: audiograbber 1.83.01
#
DISCID=9808920c
DTITLE=Various Artist - Das Waren Schlager 1953
DYEAR=1953
DGENRE=Retro
TTITLE0=Bruce Low - Soviel Wind Und Keine Segel
TTITLE1=Rita Paul - Spiel Mir Eine Alte Melodie
TTITLE2=Gerhard Wendland - Jambalaya
TTITLE3=Maria von Schmedes - Ich Möcht' Gern Dein Herz Klopfen Hör'n
TTITLE4=Rudi Schuricke - Dreh Dich Noch Einmal Um
TTITLE5=Friedel Hensch and Die Cyprys - Tango Max
TTITLE6=Gerhard Wendland - Vagabundenlied
TTITLE7=Maria Andergast and Hans Lang - Du Bist Die Rose Vom Wörthersee
TTITLE8=Willy Schneider - Schütt Die Sorgen In Ein Gläschen Wein
TTITLE9=Rita Wottawa - Oh, Mein Papa
TTITLE10=Heinz Woezel - Anneliese
TTITLE11=Detlev Lais - Es Wird Ja Alles Wieder Gut
EXTD=
EXTT0=
EXTT1=
EXTT2=
EXTT3=
EXTT4=
EXTT5=
EXTT6=
EXTT7=
EXTT8=
EXTT9=
EXTT10=
EXTT11=
PLAYORDER=
